<?xml version="1.0" encoding="UTF-8"?>
<svg version="1.1" xmlns="http://www.w3.org/2000/svg" width="128" height="128">
<path d="M0 0 C3.43985633 6.13191781 1.2377814 13.05127125 -0.53125 19.44140625 C-1.35447495 22.34215253 -2.20652738 25.23377855 -3.0625 28.125 C-3.49718702 29.62533472 -3.93079028 31.12598389 -4.36328125 32.62695312 C-5.41721827 36.27588332 -6.48576188 39.92023604 -7.5625 43.5625 C-6.46381592 43.85439209 -5.36513184 44.14628418 -4.2331543 44.44702148 C2.28384195 46.42747748 6.9611613 51.2121594 10.96484375 56.62890625 C14.85766124 63.92967073 14.79060982 73.46120362 12.70703125 81.31640625 C9.20704372 89.7592333 3.68403907 94.85967118 -4.5625 98.5625 C-15.48690391 102.06362742 -24.86535593 98.41361055 -34.5625 93.5625 C-35.20481567 94.23623657 -35.20481567 94.23623657 -35.86010742 94.92358398 C-37.81276971 96.95957392 -39.78104838 98.97976406 -41.75 101 C-42.42353516 101.70705078 -43.09707031 102.41410156 -43.79101562 103.14257812 C-44.78198242 104.15288086 -44.78198242 104.15288086 -45.79296875 105.18359375 C-46.69631958 106.11836548 -46.69631958 106.11836548 -47.61791992 107.07202148 C-49.5625 108.5625 -49.5625 108.5625 -54.5625 109.5625 C-57.5325 104.2825 -60.5025 99.0025 -63.5625 93.5625 C-64.8825 95.2125 -66.2025 96.8625 -67.5625 98.5625 C-70 100.9375 -70 100.9375 -72.5625 102.5625 C-77.54089432 102.42862364 -80.20090249 99.52209447 -83.51953125 96.171875 C-84.34127083 95.35943329 -84.34127083 95.35943329 -85.17961121 94.53057861 C-86.33169196 93.3855849 -87.4786833 92.23545029 -88.62084961 91.08056641 C-90.37101944 89.31651214 -92.1438707 87.57779279 -93.91992188 85.83984375 C-95.03791075 84.72280593 -96.15449679 83.60436195 -97.26953125 82.484375 C-98.06627007 81.7075235 -98.06627007 81.7075235 -98.87910461 80.91497803 C-101.16190113 78.57311523 -102.48322732 77.08118819 -102.98461914 73.80053711 C-102.44084591 70.91750111 -101.49704817 70.13308463 -99.1875 68.375 C-98.24777344 67.64216797 -98.24777344 67.64216797 -97.2890625 66.89453125 C-96.71929687 66.45496094 -96.14953125 66.01539062 -95.5625 65.5625 C-94.5725 64.5725 -94.5725 64.5725 -93.5625 63.5625 C-97.11629193 61.39903983 -100.71759701 59.35792933 -104.375 57.375 C-105.35082031 56.84519531 -106.32664062 56.31539062 -107.33203125 55.76953125 C-108.06808594 55.37121094 -108.80414063 54.97289062 -109.5625 54.5625 C-109.10417241 49.82132626 -107.28823162 47.80581997 -103.94140625 44.515625 C-103.00619141 43.58878906 -102.07097656 42.66195312 -101.10742188 41.70703125 C-100.61814209 41.23217285 -100.1288623 40.75731445 -99.62475586 40.26806641 C-98.12466376 38.81217367 -96.63844752 37.34321804 -95.15429688 35.87109375 C-86.56586208 27.41860803 -86.56586208 27.41860803 -80.6875 27.375 C-79.39199219 27.35373047 -79.39199219 27.35373047 -78.0703125 27.33203125 C-75.5625 27.5625 -75.5625 27.5625 -73.4921875 28.63671875 C-71.6364929 29.73260133 -71.6364929 29.73260133 -69.7019043 29.37744141 C-66.84979889 28.29101805 -65.46685811 26.69019942 -63.40234375 24.44921875 C-62.60763672 23.61326172 -61.81292969 22.77730469 -60.99414062 21.91601562 C-59.3499684 20.15854101 -57.71430993 18.39305707 -56.08789062 16.61914062 C-50.34851731 10.6220248 -45.54141561 7.71043875 -37.5625 5.5625 C-36.51924561 5.24949951 -35.47599121 4.93649902 -34.40112305 4.61401367 C-31.09133819 3.63296303 -27.76916596 2.71619985 -24.4375 1.8125 C-23.32246094 1.49667969 -22.20742187 1.18085938 -21.05859375 0.85546875 C-5.85102178 -3.28228051 -5.85102178 -3.28228051 0 0 Z M-21.5625 7.5625 C-19.97688362 11.41843074 -17.49740046 13.89466291 -14.5625 16.8125 C-13.2321875 18.15054687 -13.2321875 18.15054687 -11.875 19.515625 C-9.82760897 21.78343073 -9.82760897 21.78343073 -7.5625 21.5625 C-4.96974862 13.22215495 -4.96974862 13.22215495 -4.5625 4.5625 C-10.56480002 4.07582703 -15.87950989 5.86367022 -21.5625 7.5625 Z M-50.07739258 19.05566406 C-51.89386331 20.87353809 -53.68637107 22.71560133 -55.45703125 24.578125 C-56.4229402 25.56087047 -57.39089315 26.54161066 -58.36076355 27.52044678 C-60.87842781 30.07207991 -63.36784592 32.64954812 -65.85186768 35.23388672 C-68.40324645 37.87820091 -70.98108249 40.4964568 -73.55664062 43.1171875 C-78.58446737 48.2408373 -83.58266861 53.39214286 -88.5625 58.5625 C-84.85234473 62.9891071 -81.04101707 67.20464876 -76.9453125 71.27734375 C-76.44329315 71.77794815 -75.9412738 72.27855255 -75.42404175 72.79432678 C-73.84756329 74.36528598 -72.26761427 75.93269877 -70.6875 77.5 C-69.60653726 78.57593727 -68.52580617 79.65210731 -67.4453125 80.72851562 C-64.82037359 83.34253292 -62.19231372 85.95338596 -59.5625 88.5625 C-57.8585128 87.10512217 -56.15580525 85.64632187 -54.45556641 84.18457031 C-52.89887469 82.85072201 -51.3317045 81.52911243 -49.76171875 80.2109375 C-43.89841054 74.90386848 -41.55905644 71.25027157 -40.85546875 63.34765625 C-40.46272873 59.61400777 -39.22953962 56.89657924 -37.5625 53.5625 C-38.15417969 53.41554687 -38.74585938 53.26859375 -39.35546875 53.1171875 C-45.30344466 51.42885502 -48.12029669 49.72580497 -51.5625 44.5625 C-53.238694 39.53391801 -53.16892735 35.22219589 -51.375 30.3125 C-48.85850406 26.49436823 -46.83382174 24.16949116 -42.296875 22.95703125 C-37.00942188 22.13796259 -32.91453548 22.40556393 -28.25 25.1328125 C-23.4352482 29.21197722 -22.11784143 35.70005921 -20.5625 41.5625 C-19.43715895 42.91868499 -19.43715895 42.91868499 -16.5 42.625 C-15.530625 42.604375 -14.56125 42.58375 -13.5625 42.5625 C-13.02956165 40.81614835 -12.51159337 39.06522348 -12 37.3125 C-11.70996094 36.33796875 -11.41992188 35.3634375 -11.12109375 34.359375 C-10.53481883 31.42390057 -10.54775384 30.31759559 -11.5625 27.5625 C-13.193954 25.47051974 -13.193954 25.47051974 -15.2734375 23.453125 C-16.02367188 22.69902344 -16.77390625 21.94492187 -17.546875 21.16796875 C-18.73023437 20.00201172 -18.73023437 20.00201172 -19.9375 18.8125 C-21.10925781 17.62333984 -21.10925781 17.62333984 -22.3046875 16.41015625 C-23.0575 15.66121094 -23.8103125 14.91226562 -24.5859375 14.140625 C-25.27606934 13.45387695 -25.96620117 12.76712891 -26.67724609 12.05957031 C-33.06779502 6.98486868 -45.15986263 14.56198022 -50.07739258 19.05566406 Z M-44.5625 30.5625 C-46.88087458 32.88087458 -47.49773664 34.19011069 -48.0625 37.4375 C-47.3669411 41.78474315 -45.78879595 43.61078243 -42.5625 46.5625 C-38.88325016 47.53088142 -38.88325016 47.53088142 -35.5625 47.5625 C-35.8925 45.2525 -36.2225 42.9425 -36.5625 40.5625 C-32.1075 40.0675 -32.1075 40.0675 -27.5625 39.5625 C-27.83048238 35.72141922 -28.357183 33.826479 -30.75 30.75 C-35.79231826 26.82819691 -39.51318101 26.60492566 -44.5625 30.5625 Z M-87.8671875 37.2109375 C-88.98867187 38.34789062 -88.98867187 38.34789062 -90.1328125 39.5078125 C-90.89335938 40.30960938 -91.65390625 41.11140625 -92.4375 41.9375 C-93.22125 42.7315625 -94.005 43.525625 -94.8125 44.34375 C-98.88610287 47.88804427 -98.88610287 47.88804427 -100.5625 52.5625 C-98.2525 53.5525 -95.9425 54.5425 -93.5625 55.5625 C-87.2925 49.2925 -81.0225 43.0225 -74.5625 36.5625 C-77.20986537 33.3147599 -77.20986537 33.3147599 -80.48095703 33.14697266 C-84.18874285 33.64694504 -85.2858137 34.55869048 -87.8671875 37.2109375 Z M-28.5625 45.5625 C-28.43875 46.738125 -28.315 47.91375 -28.1875 49.125 C-28.16118386 52.84873355 -28.94584528 54.50434165 -31.4375 57.25 C-32.23800781 58.02923828 -32.23800781 58.02923828 -33.0546875 58.82421875 C-37.00447574 63.3777311 -37.11376741 68.64817912 -37 74.421875 C-36.15041032 80.52071517 -33.24836175 85.36727589 -28.48828125 89.2578125 C-22.34244768 93.2338601 -16.84199047 94.44798257 -9.5625 93.5625 C-2.17799723 91.24876121 2.63279264 87.27338604 6.4375 80.5625 C8.34518316 74.83945053 8.62328374 67.85929785 6.56640625 62.140625 C3.11309943 56.29830919 -1.64984637 51.74913666 -7.9375 49.1875 C-11.59809868 48.5563623 -14.86371511 48.5850562 -18.5546875 48.69140625 C-21.27382507 48.51683127 -22.56551885 47.33759436 -24.5625 45.5625 C-25.8825 45.5625 -27.2025 45.5625 -28.5625 45.5625 Z M-95.5625 73.5625 C-91.17807474 78.81424926 -86.55407907 83.69472473 -81.6875 88.5 C-80.99914062 89.18384766 -80.31078125 89.86769531 -79.6015625 90.57226562 C-77.92416489 92.23801464 -76.24446209 93.9013622 -74.5625 95.5625 C-72.25200632 93.55013454 -70.75211497 92.09463291 -69.71386719 89.1809082 C-69.29783057 86.50393958 -69.29783057 86.50393958 -70.96191406 84.43432617 C-71.66026367 83.74830322 -72.35861328 83.06228027 -73.078125 82.35546875 C-73.83480469 81.60458984 -74.59148437 80.85371094 -75.37109375 80.08007812 C-76.17675781 79.31115234 -76.98242188 78.54222656 -77.8125 77.75 C-78.60269531 76.96173828 -79.39289063 76.17347656 -80.20703125 75.36132812 C-86.3752084 69.33404843 -88.10219185 68.25739198 -95.5625 73.5625 Z M-42.5625 80.5625 C-46.8525 84.8525 -51.1425 89.1425 -55.5625 93.5625 C-54.5725 95.8725 -53.5825 98.1825 -52.5625 100.5625 C-48.77254487 98.97373661 -46.19074323 96.58860453 -43.25 93.75 C-42.34636719 92.89792969 -41.44273438 92.04585937 -40.51171875 91.16796875 C-38.29522608 88.75291479 -38.29522608 88.75291479 -38.58203125 85.92578125 C-39.5319338 83.21090511 -39.5319338 83.21090511 -42.5625 80.5625 Z " fill="#FFFFFF" transform="translate(114.5625,7.4375)"/>
<path d="M0 0 C1.65 0.33 3.3 0.66 5 1 C5 1.99 5 2.98 5 4 C5.66 4 6.32 4 7 4 C7 2.68 7 1.36 7 0 C8.65 0 10.3 0 12 0 C12.33 1.65 12.66 3.3 13 5 C13.99 5.33 14.98 5.66 16 6 C17.43445114 8.86890229 17.43073118 11.73804294 17.71875 14.90625 C17.892155 17.05443933 17.892155 17.05443933 19 19 C19.4069579 22.74401272 19.49904726 24.36787347 17.125 27.375 C15 29 15 29 13 29 C12.01 31.475 12.01 31.475 11 34 C9.68 33.67 8.36 33.34 7 33 C7 32.01 7 31.02 7 30 C6.34 30 5.68 30 5 30 C4.34 31.32 3.68 32.64 3 34 C1.68 33.67 0.36 33.34 -1 33 C-1 32.01 -1 31.02 -1 30 C-2.32 29.67 -3.64 29.34 -5 29 C-4.67 27.35 -4.34 25.7 -4 24 C-3.01 24 -2.02 24 -1 24 C-1 19.38 -1 14.76 -1 10 C-2.32 9.67 -3.64 9.34 -5 9 C-4.67 7.35 -4.34 5.7 -4 4 C-3.01 4 -2.02 4 -1 4 C-0.67 2.68 -0.34 1.36 0 0 Z M5 10 C5 10.99 5 11.98 5 13 C6.98 13 8.96 13 11 13 C11 12.01 11 11.02 11 10 C9.02 10 7.04 10 5 10 Z M5 19 C5 20.65 5 22.3 5 24 C7.31 24 9.62 24 12 24 C12.59070014 22.05396726 12.59070014 22.05396726 13 20 C11.81575674 18.58422523 11.81575674 18.58422523 8.4375 18.9375 C6.7359375 18.9684375 6.7359375 18.9684375 5 19 Z " fill="#FFFFFF" transform="translate(94,62)"/>
<path d="M0 0 C6.40547556 0.78091662 9.50352071 4.84209172 13.875 9.25 C15.06996094 10.39662109 15.06996094 10.39662109 16.2890625 11.56640625 C17.03671875 12.31277344 17.784375 13.05914062 18.5546875 13.828125 C19.24030762 14.5077832 19.92592773 15.18744141 20.63232422 15.88769531 C22 18 22 18 21.71533203 20.76074219 C21.47927246 21.49969727 21.24321289 22.23865234 21 23 C14.59452444 22.21908338 11.49647929 18.15790828 7.125 13.75 C6.32835937 12.98558594 5.53171875 12.22117187 4.7109375 11.43359375 C3.58945312 10.31404297 3.58945312 10.31404297 2.4453125 9.171875 C1.75969238 8.4922168 1.07407227 7.81255859 0.36767578 7.11230469 C-1 5 -1 5 -0.71533203 2.23925781 C-0.36124268 1.1308252 -0.36124268 1.1308252 0 0 Z " fill="#FFFFFF" transform="translate(37,63)"/>
<path d="M0 0 C0.99 0.33 1.98 0.66 3 1 C2.89216042 5.42142262 1.70048545 7.73250898 -1.25 10.875 C-3.69429665 13.16810304 -4.55942921 13.93438307 -7.9375 14.4375 C-8.9584375 14.2209375 -8.9584375 14.2209375 -10 14 C-10.76953125 12.29296875 -10.76953125 12.29296875 -11 10 C-9.19921875 7.67578125 -9.19921875 7.67578125 -6.6875 5.3125 C-5.86636719 4.52488281 -5.04523437 3.73726563 -4.19921875 2.92578125 C-2 1 -2 1 0 0 Z " fill="#FFFFFF" transform="translate(26,108)"/>
<path d="M0 0 C0.411497 3.40090171 0.23401992 4.68097284 -1.828125 7.4921875 C-2.62734375 8.27851562 -3.4265625 9.06484375 -4.25 9.875 C-5.03890625 10.67679688 -5.8278125 11.47859375 -6.640625 12.3046875 C-9 14 -9 14 -11.296875 13.7578125 C-11.85890625 13.50773437 -12.4209375 13.25765625 -13 13 C-13.32722507 9.83312684 -13.28730647 8.40850274 -11.42578125 5.76171875 C-10.72839844 5.07722656 -10.03101563 4.39273438 -9.3125 3.6875 C-8.28576172 2.64142578 -8.28576172 2.64142578 -7.23828125 1.57421875 C-4.59149726 -0.28730647 -3.16687316 -0.32722507 0 0 Z " fill="#FFFFFF" transform="translate(13,93)"/>
<path d="M0 0 C0.70125 0.12375 1.4025 0.2475 2.125 0.375 C2.375 2.63671875 2.375 2.63671875 2.125 5.375 C0.375 7.39453125 0.375 7.39453125 -1.875 9.1875 C-2.6175 9.79207031 -3.36 10.39664063 -4.125 11.01953125 C-4.7025 11.46683594 -5.28 11.91414063 -5.875 12.375 C-7.195 11.715 -8.515 11.055 -9.875 10.375 C-8.91028972 5.09206277 -5.46881057 0.71332312 0 0 Z " fill="#FFFFFF" transform="translate(18.875,100.625)"/>
</svg>
