<?xml version="1.0" encoding="UTF-8"?>
<svg version="1.1" xmlns="http://www.w3.org/2000/svg" width="128" height="128">
<path d="M0 0 C14.01721588 9.33350638 23.97085468 24.20156056 27.42163086 40.69335938 C29.40151238 53.31219606 29.11121157 67.50101921 23.81640625 79.20947266 C23.34203125 80.28068359 22.86765625 81.35189453 22.37890625 82.45556641 C14.34856639 98.84440906 0.98598798 110.03119998 -16.18359375 116.20947266 C-33.60183722 121.26582178 -52.77725401 119.2495237 -68.60131836 110.66967773 C-84.04490388 101.72907346 -94.07252256 87.56326684 -99.30078125 70.58056641 C-103.37904977 53.39198897 -100.28313242 34.97858889 -91.54296875 19.89306641 C-81.91142203 4.27643418 -67.59470783 -4.32234663 -50.30664062 -9.3347168 C-32.96980297 -13.05687364 -14.8364328 -9.14887544 0 0 Z M-82.18359375 16.20947266 C-93.11907729 30.079847 -96.52875122 45.93867698 -95.18359375 63.20947266 C-92.39320729 79.15453816 -84.11232978 92.34982199 -71.484375 102.34619141 C-56.94223706 112.13294409 -40.47477338 115.53542909 -23.27734375 112.52587891 C-7.00162379 108.18688719 6.74126473 98.76796532 15.3515625 84.11572266 C22.76374892 69.40994481 25.48367458 53.87243144 21.19140625 37.77197266 C15.91954288 21.91989906 5.90477872 8.8144991 -9.18359375 1.20947266 C-35.39920942 -10.30495487 -62.725656 -5.15951255 -82.18359375 16.20947266 Z " fill="#FFFFFF" transform="translate(100.18359375,9.79052734375)"/>
<path d="M0 0 C10.99729704 9.28364864 18.57744369 22.56517497 20.20703125 36.9296875 C21.37678598 54.20922223 17.23105969 68.9496108 5.95703125 82.3046875 C-5.21355483 94.00720625 -19.70332829 99.8382417 -35.66796875 100.2421875 C-51.04958475 99.9431928 -65.52628864 94.12702296 -76.61328125 83.3671875 C-88.43513252 70.14705274 -92.76230121 54.34109326 -91.79296875 36.9296875 C-89.99874377 22.83926015 -83.32108968 10.451937 -72.79296875 0.9296875 C-50.5059456 -15.81778654 -22.75988796 -16.8709659 0 0 Z M-74.015625 10.24609375 C-82.43602959 20.05153686 -87.41967306 32.85014897 -86.9765625 45.8828125 C-85.59872725 61.24420977 -78.93031087 74.38193972 -67.1015625 84.296875 C-55.22963471 92.69360227 -41.45814504 96.6870014 -27.04296875 94.2421875 C-12.0216178 90.90154964 -0.19333012 82.87634689 8.20703125 69.9296875 C15.82726152 55.27092394 16.68655342 41.53160301 11.89599609 25.90429688 C7.04908721 12.01280182 -2.96092174 3.31185336 -15.79296875 -3.0703125 C-36.54889657 -11.84178045 -58.71695441 -5.69786347 -74.015625 10.24609375 Z " fill="#FFFFFF" transform="translate(99.79296875,20.0703125)"/>
<path d="M0 0 C1.96289062 2.08203125 1.96289062 2.08203125 3.65625 4.8125 C4.28660156 5.80636719 4.91695312 6.80023438 5.56640625 7.82421875 C6.20449219 8.87222656 6.84257813 9.92023437 7.5 11 C8.78099422 13.04182716 10.062241 15.08349589 11.34375 17.125 C11.95476562 18.11886719 12.56578125 19.11273438 13.1953125 20.13671875 C15.31984213 23.50745515 17.59972924 26.74903683 19.95117188 29.96484375 C21.27408578 32.5318387 21.42063002 34.15087066 21 37 C18.33652533 39.02424075 15.94518925 40.4631934 13 42 C11.2984375 42.92619141 11.2984375 42.92619141 9.5625 43.87109375 C-1.70295509 49.83128807 -1.70295509 49.83128807 -7 49 C-10.53613617 47.59578113 -13.88072442 45.88731561 -17.25 44.125 C-18.16007812 43.66480469 -19.07015625 43.20460937 -20.0078125 42.73046875 C-26.68987462 39.31012538 -26.68987462 39.31012538 -29 37 C-29.71974147 32.35040965 -27.9679958 29.83492194 -25.421875 26.03515625 C-25.05402893 25.47936386 -24.68618286 24.92357147 -24.30718994 24.35093689 C-23.1320637 22.58077916 -21.9414463 20.82170349 -20.75 19.0625 C-19.96379421 17.88416314 -19.17862704 16.70513259 -18.39453125 15.52539062 C-16.27512232 12.34206341 -14.13770746 9.17107089 -12 6 C-11.29649414 4.90486084 -10.59298828 3.80972168 -9.86816406 2.68139648 C-6.87144415 -1.61982866 -4.89867934 -1.36262824 0 0 Z M-8 10 C-8.946733 11.35894325 -9.84486694 12.7517871 -10.72265625 14.15625 C-11.26083984 15.01347656 -11.79902344 15.87070312 -12.35351562 16.75390625 C-12.91748047 17.66011719 -13.48144531 18.56632812 -14.0625 19.5 C-14.63033203 20.40621094 -15.19816406 21.31242187 -15.78320312 22.24609375 C-17.19199504 24.49542537 -18.59742137 26.74679071 -20 29 C-17.20112673 30.39943663 -15.87861172 29.54753576 -12.9375 28.625 C-11.58978516 28.21121094 -11.58978516 28.21121094 -10.21484375 27.7890625 C-8.05505921 27.19799028 -8.05505921 27.19799028 -7 26 C-6.92680379 23.30345146 -6.90757463 20.63308542 -6.9375 17.9375 C-6.94201172 17.17888672 -6.94652344 16.42027344 -6.95117188 15.63867188 C-6.9629932 13.75908129 -6.98092922 11.87953101 -7 10 C-7.33 10 -7.66 10 -8 10 Z M-1 10 C-1 15.28 -1 20.56 -1 26 C0.216875 26.474375 1.43375 26.94875 2.6875 27.4375 C3.37199219 27.70433594 4.05648437 27.97117187 4.76171875 28.24609375 C7.15422468 29.05194653 9.51775797 29.55224005 12 30 C8.37233112 23.11772039 4.71240187 16.2166865 0 10 C-0.33 10 -0.66 10 -1 10 Z M-1 32 C-1 35.3 -1 38.6 -1 42 C3.23429756 40.68938409 7.07407404 39.05643741 11 37 C10.15570324 34.72573954 10.15570324 34.72573954 7.49609375 34.1484375 C6.48675781 33.89320312 5.47742188 33.63796875 4.4375 33.375 C3.42558594 33.11460938 2.41367188 32.85421875 1.37109375 32.5859375 C0.58863281 32.39257812 -0.19382812 32.19921875 -1 32 Z M-14.125 34 C-15.03507812 34.37125 -15.94515625 34.7425 -16.8828125 35.125 C-17.93082031 35.558125 -17.93082031 35.558125 -19 36 C-16.34479822 38.13492575 -13.96350135 39.56277453 -10.75 40.6875 C-8.89375 41.3371875 -8.89375 41.3371875 -7 42 C-7 38.7 -7 35.4 -7 32 C-9.70183055 32 -11.62989788 32.97636836 -14.125 34 Z " fill="#FFFFFF" transform="translate(68,26)"/>
<path d="M0 0 C4.83731276 0.28313039 7.95908698 1.41456885 12.03564453 3.98388672 C16.0148137 6.39938128 19.62035412 8.47691149 24.36572266 7.52587891 C28.5016564 6.02891472 32.26708364 4.03528682 36.1015625 1.8984375 C38.91084041 0.35864659 39.72114331 -0.02089624 43.0234375 0.2265625 C44.00183594 0.60941406 44.00183594 0.60941406 45 1 C45.76953125 3.125 45.76953125 3.125 46 6 C44.64531585 8.24055626 43.36068703 10.02479365 41.6875 12 C40.75807887 13.13978122 39.82972499 14.28043341 38.90234375 15.421875 C38.4213623 16.00646484 37.94038086 16.59105469 37.44482422 17.19335938 C36.00671926 18.99159809 34.6543705 20.82948042 33.31640625 22.703125 C32.88561768 23.29738281 32.4548291 23.89164063 32.01098633 24.50390625 C31.18774265 25.64385567 30.37577657 26.79205933 29.5769043 27.94921875 C27.59300793 30.6397026 26.1480291 31.94187339 23.015625 33.171875 C20 33 20 33 17.5 31.0234375 C16.675 30.02570313 15.85 29.02796875 15 28 C14.52691406 27.43571289 14.05382812 26.87142578 13.56640625 26.29003906 C12.01724499 24.42199202 10.50573127 22.52818318 9 20.625 C8.49210937 19.99078125 7.98421875 19.3565625 7.4609375 18.703125 C5.95751519 16.81420979 4.4732578 14.9125206 3 13 C2.50741699 12.36143066 2.01483398 11.72286133 1.50732422 11.06494141 C-2.01510175 6.34734034 -2.01510175 6.34734034 -1.875 3.125 C-1 1 -1 1 0 0 Z M7 8 C10.40005275 13.25781354 13.8125373 18.33397013 18 23 C18.33 23 18.66 23 19 23 C19 19.7 19 16.4 19 13 C17.37750059 12.16180842 15.75191503 11.3295884 14.125 10.5 C13.22007813 10.0359375 12.31515625 9.571875 11.3828125 9.09375 C9.13403141 7.86094411 9.13403141 7.86094411 7 8 Z M28.8125 11 C27.554375 11.66 26.29625 12.32 25 13 C25 16.3 25 19.6 25 23 C29.54075781 18.85989729 32.71842138 14.17609824 36 9 C32.80389448 9 31.58282374 9.54671542 28.8125 11 Z " fill="#FFFFFF" transform="translate(42,70)"/>
<path d="M0 0 C-0.0625 1.75 -0.0625 1.75 -1 4 C-5.09149182 6.83257126 -7.89829756 8.61838818 -13 8 C-12.9375 5.75 -12.9375 5.75 -12 3 C-8.24091059 -0.2626059 -4.8628382 -1.7683048 0 0 Z " fill="#FFFFFF" transform="translate(93,99)"/>
<path d="M0 0 C4.96675157 0.47302396 8.15152557 1.79293798 12 5 C12 6.32 12 7.64 12 9 C6.37458159 8.54996653 3.38512875 7.31558515 -1 4 C-0.67 2.68 -0.34 1.36 0 0 Z " fill="#FFFFFF" transform="translate(36,98)"/>
<path d="M0 0 C2.25 0.0625 2.25 0.0625 5 1 C6.84962319 3.13108758 8.06998127 5.33880183 9 8 C8.75 10.9375 8.75 10.9375 8 13 C6.25 12.9375 6.25 12.9375 4 12 C1.16742874 7.90850818 -0.61838818 5.10170244 0 0 Z " fill="#FFFFFF" transform="translate(21,80)"/>
<path d="M0 0 C1.32 0.33 2.64 0.66 4 1 C3.52697604 5.96675157 2.20706202 9.15152557 -1 13 C-2.32 13 -3.64 13 -5 13 C-4.54996653 7.37458159 -3.31558515 4.38512875 0 0 Z " fill="#FFFFFF" transform="translate(26,35)"/>
<path d="M0 0 C5.62541841 0.45003347 8.61487125 1.68441485 13 5 C12.67 6.32 12.34 7.64 12 9 C7.03324843 8.52697604 3.84847443 7.20706202 0 4 C0 2.68 0 1.36 0 0 Z " fill="#FFFFFF" transform="translate(80,21)"/>
<path d="M0 0 C-0.0625 2.25 -0.0625 2.25 -1 5 C-3.13108758 6.84962319 -5.33880183 8.06998127 -8 9 C-10.9375 8.75 -10.9375 8.75 -13 8 C-12.9375 6.25 -12.9375 6.25 -12 4 C-7.90850818 1.16742874 -5.10170244 -0.61838818 0 0 Z " fill="#FFFFFF" transform="translate(48,21)"/>
<path d="M0 0 C1.32 0 2.64 0 4 0 C3.53829217 4.70941985 2.98551094 8.24046771 0 12 C-2.1875 12.8125 -2.1875 12.8125 -4 13 C-4.8125 11 -4.8125 11 -5 8 C-3.72756591 5.03281532 -2.24844847 2.32936949 0 0 Z " fill="#FFFFFF" transform="translate(103,80)"/>
<path d="M0 0 C1.75 0.0625 1.75 0.0625 4 1 C6.83257126 5.09149182 8.61838818 7.89829756 8 13 C5.75 12.9375 5.75 12.9375 3 12 C1.15037681 9.86891242 -0.06998127 7.66119817 -1 5 C-0.75 2.0625 -0.75 2.0625 0 0 Z " fill="#FFFFFF" transform="translate(99,35)"/>
<path d="M0 0 C1.65322266 0.01740234 1.65322266 0.01740234 3.33984375 0.03515625 C4.99693359 0.04869141 4.99693359 0.04869141 6.6875 0.0625 C7.54214844 0.07410156 8.39679688 0.08570312 9.27734375 0.09765625 C9.83984375 2.03515625 9.83984375 2.03515625 10.27734375 4.09765625 C9.27734375 5.09765625 9.27734375 5.09765625 6.5546875 5.1953125 C4.90146484 5.17791016 4.90146484 5.17791016 3.21484375 5.16015625 C1.55775391 5.14662109 1.55775391 5.14662109 -0.1328125 5.1328125 C-0.98746094 5.12121094 -1.84210937 5.10960938 -2.72265625 5.09765625 C-3.28515625 3.16015625 -3.28515625 3.16015625 -3.72265625 1.09765625 C-2.72265625 0.09765625 -2.72265625 0.09765625 0 0 Z " fill="#FFFFFF" transform="translate(60.72265625,105.90234375)"/>
<path d="M0 0 C1.98 0.495 1.98 0.495 4 1 C4 4.96 4 8.92 4 13 C2.68 13.33 1.36 13.66 0 14 C-1 13 -1 13 -1.1328125 10.3125 C-1.13023438 9.219375 -1.12765625 8.12625 -1.125 7 C-1.12757812 5.906875 -1.13015625 4.81375 -1.1328125 3.6875 C-1 1 -1 1 0 0 Z " fill="#FFFFFF" transform="translate(107,57)"/>
<path d="M0 0 C1.98 0.495 1.98 0.495 4 1 C4 4.96 4 8.92 4 13 C2.68 13.33 1.36 13.66 0 14 C-1 13 -1 13 -1.1328125 10.3125 C-1.13023438 9.219375 -1.12765625 8.12625 -1.125 7 C-1.12757812 5.906875 -1.13015625 4.81375 -1.1328125 3.6875 C-1 1 -1 1 0 0 Z " fill="#FFFFFF" transform="translate(18,57)"/>
<path d="M0 0 C1.65322266 0.01740234 1.65322266 0.01740234 3.33984375 0.03515625 C4.99693359 0.04869141 4.99693359 0.04869141 6.6875 0.0625 C7.54214844 0.07410156 8.39679688 0.08570312 9.27734375 0.09765625 C9.83984375 2.03515625 9.83984375 2.03515625 10.27734375 4.09765625 C9.27734375 5.09765625 9.27734375 5.09765625 6.5546875 5.1953125 C4.90146484 5.17791016 4.90146484 5.17791016 3.21484375 5.16015625 C1.55775391 5.14662109 1.55775391 5.14662109 -0.1328125 5.1328125 C-0.98746094 5.12121094 -1.84210937 5.10960937 -2.72265625 5.09765625 C-3.28515625 3.16015625 -3.28515625 3.16015625 -3.72265625 1.09765625 C-2.72265625 0.09765625 -2.72265625 0.09765625 0 0 Z " fill="#FFFFFF" transform="translate(60.72265625,16.90234375)"/>
</svg>
