<?xml version="1.0" encoding="UTF-8"?>
<svg version="1.1" xmlns="http://www.w3.org/2000/svg" width="256" height="256">
<path d="M0 0 C8.07577411 0.63162479 13.15730182 8.73378119 18.0625 14.4375 C19.6055006 16.26204859 21.13974643 18.09347716 22.66943359 19.92919922 C24.15420045 21.71005982 25.64805341 23.48288209 27.14453125 25.25390625 C35.06427901 34.6615479 35.06427901 34.6615479 35.5625 39.0625 C35.1875 42.75 35.1875 42.75 33.4375 45.6875 C30.1875 47.75 30.1875 47.75 18.1875 47.75 C18.1875 69.53 18.1875 91.31 18.1875 113.75 C21.1575 114.41 24.1275 115.07 27.1875 115.75 C44.86119479 122.76121299 58.9147347 135.58048954 67.1875 152.75 C75.27264646 172.88862002 76.04365747 194.21351656 67.6796875 214.38671875 C58.93698279 233.19369981 43.83936962 246.98726338 24.41064453 254.08520508 C16.44507099 256.68657912 8.66283467 257.20066636 0.3125 257.25 C-0.72108643 257.25644531 -1.75467285 257.26289063 -2.81958008 257.26953125 C-21.43224821 256.95939467 -38.53162374 248.57319114 -52.0625 236.0625 C-66.43324589 220.78029031 -72.88230998 201.44865826 -72.8125 180.75 C-71.64984265 160.6188033 -62.72617566 142.24920228 -47.8125 128.75 C-38.58868355 121.09655673 -28.73064126 115.45259161 -16.8125 113.75 C-16.8125 91.97 -16.8125 70.19 -16.8125 47.75 C-20.7725 47.75 -24.7325 47.75 -28.8125 47.75 C-32.0625 45.75 -32.0625 45.75 -33.8125 42.75 C-34.39297252 37.69309076 -34.46573672 35.74927564 -31.64453125 31.43359375 C-30.6575266 30.33374073 -29.64965619 29.25236362 -28.625 28.1875 C-27.52559898 26.97956943 -26.42665719 25.77122077 -25.328125 24.5625 C-24.75255859 23.94246094 -24.17699219 23.32242187 -23.58398438 22.68359375 C-20.59756192 19.42388236 -17.74736646 16.04752492 -14.875 12.6875 C-4.80522587 0.94529034 -4.80522587 0.94529034 0 0 Z M0.1875 10.75 C-1.68362616 12.66061422 -3.50664661 14.59145191 -5.3125 16.5625 C-5.85060303 17.14765381 -6.38870605 17.73280762 -6.94311523 18.33569336 C-12.90269803 24.86782021 -18.54495029 31.64455133 -23.8125 38.75 C-22.31396484 38.84087891 -22.31396484 38.84087891 -20.78515625 38.93359375 C-19.49480469 39.01738281 -18.20445312 39.10117187 -16.875 39.1875 C-14.94333984 39.30931641 -14.94333984 39.30931641 -12.97265625 39.43359375 C-9.8125 39.75 -9.8125 39.75 -8.8125 40.75 C-8.68843185 42.95794411 -8.63447722 45.16984486 -8.60717773 47.38110352 C-8.59727814 48.07375305 -8.58737854 48.76640259 -8.57717896 49.4800415 C-8.5454797 51.77962779 -8.52077349 54.07923477 -8.49609375 56.37890625 C-8.47553148 57.96932018 -8.45453521 59.55972855 -8.43312073 61.15013123 C-8.37782491 65.34389763 -8.3284489 69.53771395 -8.28027344 73.73156738 C-8.23011309 78.00793928 -8.17439856 82.28423834 -8.11914062 86.56054688 C-8.01146724 94.95697144 -7.91055583 103.3534576 -7.8125 111.75 C-2.5325 111.75 2.7475 111.75 8.1875 111.75 C8.20731934 109.67549561 8.22713867 107.60099121 8.24755859 105.46362305 C8.31442466 98.61430143 8.39206466 91.7651326 8.47502708 84.91598797 C8.5250021 80.76279232 8.57133194 76.60962227 8.609375 72.45629883 C8.64621273 68.44913073 8.69256836 64.44217606 8.74556351 60.4351902 C8.76411555 58.90540112 8.77922053 57.37556627 8.79084396 55.84570885 C8.80769284 53.7051031 8.8367236 51.56498701 8.86865234 49.42456055 C8.88197601 48.20544479 8.89529968 46.98632904 8.9090271 45.73027039 C9.1875 42.75 9.1875 42.75 11.1875 39.75 C14.4453125 39.23828125 14.4453125 39.23828125 18.3125 39.0625 C19.59382813 38.99675781 20.87515625 38.93101563 22.1953125 38.86328125 C23.67644531 38.80720703 23.67644531 38.80720703 25.1875 38.75 C20.62163354 32.28168918 15.44082918 26.59477282 10.04296875 20.828125 C7.79251571 18.41960355 5.61976687 15.96274286 3.5 13.4375 C2.736875 12.550625 1.97375 11.66375 1.1875 10.75 C0.8575 10.75 0.5275 10.75 0.1875 10.75 Z M-49.94140625 145.29296875 C-60.3312926 159.40795475 -64.95222764 176.30773277 -62.53564453 193.74804688 C-59.72078962 210.24589157 -51.15801034 224.34991591 -38.125 234.9375 C-24.26642089 244.59734128 -7.88227118 250.16192545 9.11865234 247.44091797 C26.33814298 244.17867234 41.62917487 236.06848337 52.1875 221.75 C61.7634171 207.64986783 66.74193491 190.78464999 63.50390625 173.76953125 C59.84429267 156.9800217 51.39447317 141.8775423 37.1875 131.75 C7.47702041 113.57427461 -27.27561387 118.21878372 -49.94140625 145.29296875 Z " fill="#FFFFFF" transform="translate(182.8125,-0.75)"/>
<path d="M0 0 C1.02520752 -0.00644531 2.05041504 -0.01289063 3.10668945 -0.01953125 C13.48408622 0.15393966 23.10223795 2.3758315 32.3125 7.1875 C32.99062744 7.53635254 33.66875488 7.88520508 34.36743164 8.24462891 C51.06783638 17.10087402 63.11024382 31.74736589 69.5625 49.4375 C75.8606485 70.54329542 73.28286992 90.8920253 63.09765625 110.24609375 C53.69570788 126.26209169 38.26019491 138.75962101 20.1875 143.5 C19.1975 143.5 18.2075 143.5 17.1875 143.5 C17.1875 165.28 17.1875 187.06 17.1875 209.5 C21.1475 209.5 25.1075 209.5 29.1875 209.5 C32.4375 211.5 32.4375 211.5 34.1875 214.5 C34.76797252 219.55690924 34.84073672 221.50072436 32.01953125 225.81640625 C31.0325266 226.91625927 30.02465619 227.99763638 29 229.0625 C27.90059898 230.27043057 26.80165719 231.47877923 25.703125 232.6875 C25.12755859 233.30753906 24.55199219 233.92757812 23.95898438 234.56640625 C20.97256192 237.82611764 18.12236646 241.20247508 15.25 244.5625 C5.37202371 256.08105715 5.37202371 256.08105715 2.01171875 257.26953125 C-1.52126537 257.34057846 -3.89816722 257.13286514 -6.85546875 255.0859375 C-9.00754644 252.99829328 -10.91170303 250.81911909 -12.8125 248.5 C-13.52148438 247.6440625 -14.23046875 246.788125 -14.9609375 245.90625 C-16.46315139 244.07196777 -17.95514611 242.22927508 -19.4375 240.37890625 C-22.68754634 236.43929416 -26.14959862 232.72879988 -29.6484375 229.0078125 C-32.74843584 225.41539566 -34.63652063 222.73185556 -35.3125 218 C-34.8125 214.5 -34.8125 214.5 -33.0625 211.5625 C-29.8125 209.5 -29.8125 209.5 -17.8125 209.5 C-17.8125 187.72 -17.8125 165.94 -17.8125 143.5 C-20.7825 142.84 -23.7525 142.18 -26.8125 141.5 C-44.48619479 134.48878701 -58.5397347 121.66951046 -66.8125 104.5 C-74.89764646 84.36137998 -75.66865747 63.03648344 -67.3046875 42.86328125 C-58.56180433 24.05591629 -43.46446444 10.26355911 -24.03588867 3.16479492 C-16.09061912 0.57036286 -8.32905065 0.04941224 0 0 Z M-48.5 31.25 C-59.89325843 45.03476786 -65.1297483 61.71714802 -63.8125 79.5 C-60.69374308 98.30647999 -52.28514095 114.02365993 -36.8125 125.4375 C-21.68052669 135.23158036 -4.51638422 139.11881876 13.27709961 135.41992188 C30.14223712 131.42261928 44.28565789 121.61187892 53.73046875 107.01953125 C63.05368357 90.89761822 65.88759846 73.45080883 61.08789062 55.34936523 C56.40638497 39.44041142 45.71991148 25.64064884 31.1875 17.5 C3.49330523 3.58834738 -27.10221228 8.33059182 -48.5 31.25 Z M-7.8125 145.5 C-7.83231934 147.57450439 -7.85213867 149.64900879 -7.87255859 151.78637695 C-7.93942466 158.63569857 -8.01706466 165.4848674 -8.10002708 172.33401203 C-8.1500021 176.48720768 -8.19633194 180.64037773 -8.234375 184.79370117 C-8.27121273 188.80086927 -8.31756836 192.80782394 -8.37056351 196.8148098 C-8.38911555 198.34459888 -8.40422053 199.87443373 -8.41584396 201.40429115 C-8.43269284 203.5448969 -8.4617236 205.68501299 -8.49365234 207.82543945 C-8.50697601 209.04455521 -8.52029968 210.26367096 -8.5340271 211.51972961 C-8.8125 214.5 -8.8125 214.5 -10.8125 217.5 C-14.0703125 218.01171875 -14.0703125 218.01171875 -17.9375 218.1875 C-19.21882813 218.25324219 -20.50015625 218.31898438 -21.8203125 218.38671875 C-22.80773438 218.42410156 -23.79515625 218.46148437 -24.8125 218.5 C-20.24726435 224.96741718 -15.06577933 230.65311128 -9.671875 236.421875 C-6.61345421 239.69618431 -3.68870407 243.06453403 -0.8125 246.5 C4.20732341 242.7673108 7.83910962 238.37911469 11.73046875 233.5 C15.10023207 229.3855672 18.69440216 225.50932584 22.31640625 221.6171875 C24.29786931 219.84603187 24.29786931 219.84603187 24.1875 218.5 C23.18847656 218.43941406 22.18945312 218.37882812 21.16015625 218.31640625 C19.22462891 218.19072266 19.22462891 218.19072266 17.25 218.0625 C15.31833984 217.94068359 15.31833984 217.94068359 13.34765625 217.81640625 C10.1875 217.5 10.1875 217.5 9.1875 216.5 C9.06343185 214.29205589 9.00947722 212.08015514 8.98217773 209.86889648 C8.97227814 209.17624695 8.96237854 208.48359741 8.95217896 207.7699585 C8.9204797 205.47037221 8.89577349 203.17076523 8.87109375 200.87109375 C8.85053148 199.28067982 8.82953521 197.69027145 8.80812073 196.09986877 C8.75282491 191.90610237 8.7034489 187.71228605 8.65527344 183.51843262 C8.60511309 179.24206072 8.54939856 174.96576166 8.49414062 170.68945312 C8.38646724 162.29302856 8.28555583 153.8965424 8.1875 145.5 C2.9075 145.5 -2.3725 145.5 -7.8125 145.5 Z " fill="#FFFFFF" transform="translate(72.8125,-0.5)"/>
<path d="M0 0 C2.5 0.25 2.5 0.25 4.5 2.25 C4.6953125 4.8515625 4.6953125 4.8515625 4.625 7.875 C4.60695313 8.87789062 4.58890625 9.88078125 4.5703125 10.9140625 C4.54710938 11.68492188 4.52390625 12.45578125 4.5 13.25 C6.4490625 13.5284375 6.4490625 13.5284375 8.4375 13.8125 C14.26085874 15.14434072 18.46538281 17.86104517 22.5 22.25 C25.19076555 26.72048449 26.58786725 30.5805222 26.3125 35.8125 C25.5 38.25 25.5 38.25 24.5 39.25 C21.5625 39.4375 21.5625 39.4375 18.5 39.25 C16.24398668 36.99398668 16.06140899 35.90079338 15.3125 32.875 C14.18881391 29.27225388 13.25385365 27.60770848 9.9375 25.75 C8.803125 25.255 7.66875 24.76 6.5 24.25 C5.84 23.92 5.18 23.59 4.5 23.25 C4.5 31.17 4.5 39.09 4.5 47.25 C7.14 47.91 9.78 48.57 12.5 49.25 C18.75912608 52.2764936 22.87584911 55.79896238 25.5 62.25 C27.12468699 68.54424192 26.6038847 73.53740287 23.5 79.25 C19.27691211 85.524302 14.27441242 88.44119734 7 90 C6.175 90.0825 5.35 90.165 4.5 90.25 C4.52320312 91.02085938 4.54640625 91.79171875 4.5703125 92.5859375 C4.58835937 93.58882813 4.60640625 94.59171875 4.625 95.625 C4.64820312 96.62273437 4.67140625 97.62046875 4.6953125 98.6484375 C4.5 101.25 4.5 101.25 2.5 103.25 C0 103.5 0 103.5 -2.5 103.25 C-4.5 101.25 -4.5 101.25 -4.6953125 98.6484375 C-4.67210938 97.65070313 -4.64890625 96.65296875 -4.625 95.625 C-4.60695313 94.62210937 -4.58890625 93.61921875 -4.5703125 92.5859375 C-4.54710938 91.81507812 -4.52390625 91.04421875 -4.5 90.25 C-5.056875 90.17523438 -5.61375 90.10046875 -6.1875 90.0234375 C-13.16262804 88.82164179 -18.3931995 86.16492779 -22.8515625 80.546875 C-25.32349732 76.59889276 -26.23410027 72.85892874 -26.5 68.25 C-26.17 67.26 -25.84 66.27 -25.5 65.25 C-22.125 64.625 -22.125 64.625 -18.5 64.25 C-16.25670397 66.49329603 -16.02854691 67.62060744 -15.25 70.625 C-14.09388034 74.29391035 -13.60045207 75.16628994 -10.5 77.75 C-7.55892557 79.30892557 -7.55892557 79.30892557 -4.5 80.25 C-4.5 72.33 -4.5 64.41 -4.5 56.25 C-6.48 55.92 -8.46 55.59 -10.5 55.25 C-17.46467879 52.22324486 -22.54045496 48.3446103 -25.5 41.25 C-27.15893371 35.05664747 -26.23672253 30.13304943 -23.671875 24.3984375 C-20.10394793 18.35426253 -13.84741208 15.71843803 -7.5 13.25 C-6.51 13.25 -5.52 13.25 -4.5 13.25 C-4.52320312 12.47914062 -4.54640625 11.70828125 -4.5703125 10.9140625 C-4.58835937 9.91117188 -4.60640625 8.90828125 -4.625 7.875 C-4.64820312 6.87726562 -4.67140625 5.87953125 -4.6953125 4.8515625 C-4.42769442 1.28688961 -3.56659343 0.35665934 0 0 Z M-13.5 27.25 C-16.13551183 30.29731055 -16.5 31.70128802 -16.5 35.75 C-15.29449925 39.96925261 -13.94596794 41.56980271 -10.5 44.25 C-8.52 44.91 -6.54 45.57 -4.5 46.25 C-4.5 38.66 -4.5 31.07 -4.5 23.25 C-7.97895603 23.25 -10.73838552 25.29837406 -13.5 27.25 Z M4.5 57.25 C4.5 64.84 4.5 72.43 4.5 80.25 C9.40310426 79.26937915 12.43246402 78.16641386 15.5 74.25 C16.57309426 71.50513783 16.8383575 69.17478513 16.5 66.25 C14.16637363 61.30271209 11.55517526 59.22811206 6.5 57.25 C5.84 57.25 5.18 57.25 4.5 57.25 Z " fill="#FFFFFF" transform="translate(72.5,20.75)"/>
<path d="M0 0 C5.24919254 1.02377869 7.16755878 4.76591904 10.1796875 8.95703125 C11.09451904 10.18268799 11.09451904 10.18268799 12.02783203 11.43310547 C13.80575308 13.82364705 15.55756922 16.23142713 17.3046875 18.64453125 C18.19934297 19.86024268 19.09502819 21.07519765 19.9921875 22.2890625 C21.78223064 24.72799627 23.55452398 27.17690939 25.3046875 29.64453125 C28.02489625 27.02457772 30.36754108 24.36576011 32.58203125 21.30859375 C33.17822266 20.49132812 33.77441406 19.6740625 34.38867188 18.83203125 C35.00033203 17.98640625 35.61199219 17.14078125 36.2421875 16.26953125 C44.9848181 4.21712427 44.9848181 4.21712427 48.3046875 0.64453125 C51.4921875 0.14453125 51.4921875 0.14453125 54.3046875 0.64453125 C54.9646875 1.30453125 55.6246875 1.96453125 56.3046875 2.64453125 C56.04303489 7.33553049 54.6792828 10.0316457 51.8125 13.68359375 C50.75482422 15.04871094 50.75482422 15.04871094 49.67578125 16.44140625 C48.93457031 17.3746875 48.19335938 18.30796875 47.4296875 19.26953125 C46.69621094 20.21054688 45.96273437 21.1515625 45.20703125 22.12109375 C43.84259129 23.87075811 42.47346956 25.61678901 41.09814453 27.35791016 C39.47074762 29.43280799 37.87795289 31.52842555 36.3046875 33.64453125 C37.58085937 33.68191406 38.85703125 33.71929687 40.171875 33.7578125 C41.84117588 33.82345916 43.51044539 33.88990695 45.1796875 33.95703125 C46.02144531 33.97958984 46.86320312 34.00214844 47.73046875 34.02539062 C48.53613281 34.06083984 49.34179688 34.09628906 50.171875 34.1328125 C50.91550293 34.15899658 51.65913086 34.18518066 52.42529297 34.2121582 C54.3046875 34.64453125 54.3046875 34.64453125 56.3046875 37.64453125 C55.76414696 42.18507179 55.76414696 42.18507179 54.3046875 43.64453125 C52.52397504 43.73179348 50.7398561 43.75152166 48.95703125 43.7421875 C47.87744141 43.73896484 46.79785156 43.73574219 45.68554688 43.73242188 C44.54923828 43.72404297 43.41292969 43.71566406 42.2421875 43.70703125 C41.10201172 43.70251953 39.96183594 43.69800781 38.78710938 43.69335938 C35.95958399 43.68152872 33.1321611 43.66504535 30.3046875 43.64453125 C30.3046875 46.28453125 30.3046875 48.92453125 30.3046875 51.64453125 C31.02124512 51.6288208 31.73780273 51.61311035 32.47607422 51.59692383 C35.71053226 51.53471262 38.94486469 51.49558476 42.1796875 51.45703125 C43.87158203 51.41932617 43.87158203 51.41932617 45.59765625 51.38085938 C47.21220703 51.36635742 47.21220703 51.36635742 48.859375 51.3515625 C50.35186768 51.32799683 50.35186768 51.32799683 51.87451172 51.30395508 C53.07744873 51.47254028 53.07744873 51.47254028 54.3046875 51.64453125 C56.3046875 54.64453125 56.3046875 54.64453125 55.9921875 57.26953125 C55.3046875 59.64453125 55.3046875 59.64453125 54.3046875 60.64453125 C52.52397504 60.73179348 50.7398561 60.75152166 48.95703125 60.7421875 C47.87744141 60.73896484 46.79785156 60.73574219 45.68554688 60.73242188 C44.54923828 60.72404297 43.41292969 60.71566406 42.2421875 60.70703125 C41.10201172 60.70251953 39.96183594 60.69800781 38.78710938 60.69335938 C35.95958399 60.68152872 33.1321611 60.66504535 30.3046875 60.64453125 C30.32039795 61.36108887 30.3361084 62.07764648 30.35229492 62.81591797 C30.41450613 66.05037601 30.45363399 69.28470844 30.4921875 72.51953125 C30.51732422 73.64746094 30.54246094 74.77539062 30.56835938 75.9375 C30.57802734 77.01386719 30.58769531 78.09023437 30.59765625 79.19921875 C30.6133667 80.19421387 30.62907715 81.18920898 30.64526367 82.21435547 C30.47667847 83.41729248 30.47667847 83.41729248 30.3046875 84.64453125 C27.3046875 86.64453125 27.3046875 86.64453125 24.6796875 86.33203125 C22.3046875 85.64453125 22.3046875 85.64453125 21.3046875 84.64453125 C21.21742527 82.86381879 21.19769709 81.07969985 21.20703125 79.296875 C21.21025391 78.21728516 21.21347656 77.13769531 21.21679688 76.02539062 C21.22517578 74.88908203 21.23355469 73.75277344 21.2421875 72.58203125 C21.24669922 71.44185547 21.25121094 70.30167969 21.25585938 69.12695312 C21.26769003 66.29942774 21.2841734 63.47200485 21.3046875 60.64453125 C20.58812988 60.65500488 19.87157227 60.66547852 19.13330078 60.67626953 C15.89879845 60.71774424 12.66435197 60.74383017 9.4296875 60.76953125 C8.30175781 60.78628906 7.17382812 60.80304688 6.01171875 60.8203125 C4.39716797 60.82998047 4.39716797 60.82998047 2.75 60.83984375 C1.25750732 60.8555542 1.25750732 60.8555542 -0.26513672 60.87158203 C-2.6953125 60.64453125 -2.6953125 60.64453125 -4.6953125 58.64453125 C-4.9453125 56.14453125 -4.9453125 56.14453125 -4.6953125 53.64453125 C-2.6953125 51.64453125 -2.6953125 51.64453125 -0.26513672 51.41748047 C1.22735596 51.43319092 1.22735596 51.43319092 2.75 51.44921875 C4.36455078 51.45888672 4.36455078 51.45888672 6.01171875 51.46875 C7.70361328 51.49388672 7.70361328 51.49388672 9.4296875 51.51953125 C11.13318359 51.53306641 11.13318359 51.53306641 12.87109375 51.546875 C15.68250049 51.57050027 18.49349048 51.60344112 21.3046875 51.64453125 C21.3046875 49.00453125 21.3046875 46.36453125 21.3046875 43.64453125 C20.58812988 43.65500488 19.87157227 43.66547852 19.13330078 43.67626953 C15.89879845 43.71774424 12.66435197 43.74383017 9.4296875 43.76953125 C8.30175781 43.78628906 7.17382812 43.80304688 6.01171875 43.8203125 C4.39716797 43.82998047 4.39716797 43.82998047 2.75 43.83984375 C1.25750732 43.8555542 1.25750732 43.8555542 -0.26513672 43.87158203 C-2.6953125 43.64453125 -2.6953125 43.64453125 -4.6953125 41.64453125 C-4.9453125 39.14453125 -4.9453125 39.14453125 -4.6953125 36.64453125 C-2.34172999 34.29094874 -1.76562856 34.36581221 1.4375 34.23046875 C2.64599609 34.17246094 2.64599609 34.17246094 3.87890625 34.11328125 C4.72066406 34.08234375 5.56242188 34.05140625 6.4296875 34.01953125 C7.70392578 33.96152344 7.70392578 33.96152344 9.00390625 33.90234375 C11.10380434 33.80796631 13.20421641 33.72515539 15.3046875 33.64453125 C14.91200684 33.14115234 14.51932617 32.63777344 14.11474609 32.11914062 C12.30229936 29.79486277 10.49098836 27.46970218 8.6796875 25.14453125 C8.06222656 24.35304687 7.44476563 23.5615625 6.80859375 22.74609375 C5.57219079 21.15829206 4.3400814 19.56713762 3.11230469 17.97265625 C1.92830195 16.44771702 0.72630664 14.93654035 -0.49511719 13.44140625 C-1.04329102 12.755625 -1.59146484 12.06984375 -2.15625 11.36328125 C-2.64657715 10.76451172 -3.1369043 10.16574219 -3.64208984 9.54882812 C-5.00779196 7.07954752 -5.02498881 5.4249339 -4.6953125 2.64453125 C-2.6953125 0.64453125 -2.6953125 0.64453125 0 0 Z " fill="#FFFFFF" transform="translate(157.6953125,144.35546875)"/>
</svg>
