<?xml version="1.0" encoding="UTF-8"?>
<svg version="1.1" xmlns="http://www.w3.org/2000/svg" width="128" height="128">
<path d="M0 0 C1.47683969 1.12187997 2.93575209 2.26778397 4.375 3.4375 C5.19742188 4.05625 6.01984375 4.675 6.8671875 5.3125 C16.34729487 13.34548818 23.49035824 26.18349421 24.56787109 38.6730957 C25.13769907 55.93197646 23.66774367 69.54262524 12.375 83.4375 C11.74851562 84.27023438 11.12203125 85.10296875 10.4765625 85.9609375 C2.65003324 95.18402217 -10.91229372 102.46822377 -23.00292969 103.67480469 C-40.19523954 104.56260961 -53.89668642 102.59487485 -67.625 91.4375 C-68.44742188 90.81875 -69.26984375 90.2 -70.1171875 89.5625 C-79.59729487 81.52951182 -86.74035824 68.69150579 -87.81787109 56.2019043 C-88.38584796 38.99908988 -86.963523 25.25031933 -75.625 11.4375 C-74.84898438 10.45007813 -74.07296875 9.46265625 -73.2734375 8.4453125 C-55.79499277 -12.35561729 -21.83203836 -14.85346891 0 0 Z M-70.00390625 12.44140625 C-81.16915716 26.1894622 -84.31738581 40.07295502 -82.625 57.4375 C-80.25423314 70.24525235 -72.51049327 81.55149789 -62.16015625 89.27734375 C-48.58724014 98.4882323 -34.10335725 100.7472945 -18.05859375 97.77734375 C-2.91557584 93.21666952 7.98173892 83.12601308 15.375 69.4375 C21.047115 58.02653924 21.47481065 43.0351397 17.8125 30.875 C11.83083874 15.96297123 1.9398889 6.18612899 -12.296875 -0.890625 C-32.07135757 -8.82276208 -55.62993521 -3.03560333 -70.00390625 12.44140625 Z " fill="#FFFFFF" transform="translate(95.625,16.5625)"/>
<path d="M0 0 C2.2622506 0.05524797 4.52463103 0.10542556 6.78710938 0.15039062 C12.29843173 0.27089063 17.80485528 0.45430732 23.3125 0.6875 C22.6303309 6.55388652 19.6193009 10.53326902 15.27490234 14.36572266 C7.43208911 19.87583654 -4.31474422 17.75996678 -13.375 17.375 C-15.6372506 17.31975203 -17.89963103 17.26957444 -20.16210938 17.22460938 C-25.67343173 17.10410937 -31.17985528 16.92069268 -36.6875 16.6875 C-36.0053309 10.82111348 -32.9943009 6.84173098 -28.64990234 3.00927734 C-20.80708911 -2.50083654 -9.06025578 -0.38496678 0 0 Z M-27.82202148 10.07397461 C-28.76628064 11.52920734 -28.76628064 11.52920734 -28.6875 12.6875 C-23.54647896 12.86132512 -18.40718896 12.98792611 -13.26391602 13.07202148 C-11.51686794 13.10709498 -9.77002345 13.15476971 -8.02368164 13.21557617 C1.85625932 13.90230652 1.85625932 13.90230652 11.05810547 11.13330078 C12.81962941 9.39663079 14.1457155 7.86275493 15.3125 5.6875 C15.3125 5.3575 15.3125 5.0275 15.3125 4.6875 C10.17147896 4.51367488 5.03218896 4.38707389 -0.11108398 4.30297852 C-1.85813206 4.26790502 -3.60497655 4.22023029 -5.35131836 4.15942383 C-18.02722324 3.19416017 -18.02722324 3.19416017 -27.82202148 10.07397461 Z " fill="#FFFFFF" transform="translate(70.6875,75.3125)"/>
<path d="M0 0 C6.61498728 -0.30671952 13.22811774 -0.51538049 19.84863281 -0.65917969 C22.09542324 -0.71917151 24.34175218 -0.80080146 26.58691406 -0.90527344 C47.26288717 -1.84258422 47.26288717 -1.84258422 53.98114014 4.15106201 C57.59732777 7.95219636 60 10.48939555 60 16 C53.38501272 16.30671952 46.77188226 16.51538049 40.15136719 16.65917969 C37.90457676 16.71917151 35.65824782 16.80080146 33.41308594 16.90527344 C12.73711283 17.84258422 12.73711283 17.84258422 6.01885986 11.84893799 C2.40267223 8.04780364 0 5.51060445 0 0 Z M8 4 C8.97866338 5.14626322 9.95794587 6.29199788 10.9375 7.4375 C11.48277344 8.07558594 12.02804688 8.71367188 12.58984375 9.37109375 C13.36795695 10.26991149 14.15936528 11.15936528 15 12 C17.73894085 12.08858646 20.4525327 12.11523479 23.19140625 12.09765625 C24.01124496 12.0962413 24.83108368 12.09482635 25.67576599 12.09336853 C28.30471382 12.08775289 30.93357773 12.07519779 33.5625 12.0625 C35.34049357 12.05748701 37.11848846 12.05292376 38.89648438 12.04882812 C43.26435545 12.03777839 47.63216348 12.02050331 52 12 C51.02133662 10.85373678 50.04205413 9.70800212 49.0625 8.5625 C48.51722656 7.92441406 47.97195312 7.28632812 47.41015625 6.62890625 C46.63204305 5.73008851 45.84063472 4.84063472 45 4 C42.26105915 3.91141354 39.5474673 3.88476521 36.80859375 3.90234375 C35.98875504 3.9037587 35.16891632 3.90517365 34.32423401 3.90663147 C31.69528618 3.91224711 29.06642227 3.92480221 26.4375 3.9375 C24.65950643 3.94251299 22.88151154 3.94707624 21.10351562 3.95117188 C16.73564455 3.96222161 12.36783652 3.97949669 8 4 Z " fill="#FFFFFF" transform="translate(34,56)"/>
<path d="M0 0 C2.2622506 0.05524797 4.52463103 0.10542556 6.78710938 0.15039062 C12.29843173 0.27089063 17.80485528 0.45430732 23.3125 0.6875 C22.6303309 6.55388652 19.6193009 10.53326902 15.27490234 14.36572266 C7.43208911 19.87583654 -4.31474422 17.75996678 -13.375 17.375 C-15.6372506 17.31975203 -17.89963103 17.26957444 -20.16210938 17.22460938 C-25.67343173 17.10410937 -31.17985528 16.92069268 -36.6875 16.6875 C-36.0053309 10.82111348 -32.9943009 6.84173098 -28.64990234 3.00927734 C-20.80708911 -2.50083654 -9.06025578 -0.38496678 0 0 Z M-27.82202148 10.07397461 C-28.76628064 11.52920734 -28.76628064 11.52920734 -28.6875 12.6875 C-23.54647896 12.86132512 -18.40718896 12.98792611 -13.26391602 13.07202148 C-11.51686794 13.10709498 -9.77002345 13.15476971 -8.02368164 13.21557617 C1.85625932 13.90230652 1.85625932 13.90230652 11.05810547 11.13330078 C12.81962941 9.39663079 14.1457155 7.86275493 15.3125 5.6875 C15.3125 5.3575 15.3125 5.0275 15.3125 4.6875 C10.17147896 4.51367488 5.03218896 4.38707389 -0.11108398 4.30297852 C-1.85813206 4.26790502 -3.60497655 4.22023029 -5.35131836 4.15942383 C-18.02722324 3.19416017 -18.02722324 3.19416017 -27.82202148 10.07397461 Z " fill="#FFFFFF" transform="translate(70.6875,35.3125)"/>
<path d="M0 0 C1.32 0 2.64 0 4 0 C3.67 1.65 3.34 3.3 3 5 C1.68 4.67 0.36 4.34 -1 4 C-0.67 2.68 -0.34 1.36 0 0 Z " fill="#FFFFFF" transform="translate(78,105)"/>
<path d="M0 0 C2.475 0.495 2.475 0.495 5 1 C4.67 2.32 4.34 3.64 4 5 C2.68 4.67 1.36 4.34 0 4 C0 2.68 0 1.36 0 0 Z " fill="#FFFFFF" transform="translate(46,105)"/>
<path d="M0 0 C1.32 0 2.64 0 4 0 C3.67 1.65 3.34 3.3 3 5 C1.68 4.67 0.36 4.34 -1 4 C-0.67 2.68 -0.34 1.36 0 0 Z " fill="#FFFFFF" transform="translate(92,97)"/>
<path d="M0 0 C2.475 0.495 2.475 0.495 5 1 C4.67 2.32 4.34 3.64 4 5 C2.68 4.67 1.36 4.34 0 4 C0 2.68 0 1.36 0 0 Z " fill="#FFFFFF" transform="translate(32,97)"/>
<path d="M0 0 C1.98 0.495 1.98 0.495 4 1 C3.67 2.32 3.34 3.64 3 5 C1.68 5 0.36 5 -1 5 C-0.67 3.35 -0.34 1.7 0 0 Z " fill="#FFFFFF" transform="translate(98,91)"/>
<path d="M0 0 C1.98 0.495 1.98 0.495 4 1 C4 2.32 4 3.64 4 5 C2.35 4.67 0.7 4.34 -1 4 C-0.67 2.68 -0.34 1.36 0 0 Z " fill="#FFFFFF" transform="translate(27,91)"/>
<path d="M0 0 C1.98 0.495 1.98 0.495 4 1 C3.67 2.32 3.34 3.64 3 5 C1.68 5 0.36 5 -1 5 C-0.67 3.35 -0.34 1.7 0 0 Z " fill="#FFFFFF" transform="translate(106,77)"/>
<path d="M0 0 C1.98 0.495 1.98 0.495 4 1 C4 2.32 4 3.64 4 5 C2.35 4.67 0.7 4.34 -1 4 C-0.67 2.68 -0.34 1.36 0 0 Z " fill="#FFFFFF" transform="translate(19,77)"/>
<path d="M0 0 C2.475 0.495 2.475 0.495 5 1 C4.67 2.32 4.34 3.64 4 5 C2.68 4.67 1.36 4.34 0 4 C0 2.68 0 1.36 0 0 Z " fill="#FFFFFF" transform="translate(105,46)"/>
<path d="M0 0 C1.32 0 2.64 0 4 0 C3.67 1.65 3.34 3.3 3 5 C1.68 4.67 0.36 4.34 -1 4 C-0.67 2.68 -0.34 1.36 0 0 Z " fill="#FFFFFF" transform="translate(19,46)"/>
<path d="M0 0 C2.475 0.495 2.475 0.495 5 1 C4.67 2.32 4.34 3.64 4 5 C2.68 4.67 1.36 4.34 0 4 C0 2.68 0 1.36 0 0 Z " fill="#FFFFFF" transform="translate(97,32)"/>
<path d="M0 0 C1.32 0 2.64 0 4 0 C3.67 1.65 3.34 3.3 3 5 C1.68 4.67 0.36 4.34 -1 4 C-0.67 2.68 -0.34 1.36 0 0 Z " fill="#FFFFFF" transform="translate(27,32)"/>
<path d="M0 0 C1.98 0.495 1.98 0.495 4 1 C4 2.32 4 3.64 4 5 C2.35 4.67 0.7 4.34 -1 4 C-0.67 2.68 -0.34 1.36 0 0 Z " fill="#FFFFFF" transform="translate(92,26)"/>
<path d="M0 0 C1.98 0.495 1.98 0.495 4 1 C3.67 2.32 3.34 3.64 3 5 C1.68 5 0.36 5 -1 5 C-0.67 3.35 -0.34 1.7 0 0 Z " fill="#FFFFFF" transform="translate(33,26)"/>
<path d="M0 0 C1.98 0.495 1.98 0.495 4 1 C4 2.32 4 3.64 4 5 C2.35 4.67 0.7 4.34 -1 4 C-0.67 2.68 -0.34 1.36 0 0 Z " fill="#FFFFFF" transform="translate(78,18)"/>
<path d="M0 0 C1.98 0.495 1.98 0.495 4 1 C3.67 2.32 3.34 3.64 3 5 C1.68 5 0.36 5 -1 5 C-0.67 3.35 -0.34 1.7 0 0 Z " fill="#FFFFFF" transform="translate(47,18)"/>
<path d="M0 0 C1.32 0 2.64 0 4 0 C3.67 1.65 3.34 3.3 3 5 C2.01 4.67 1.02 4.34 0 4 C0 2.68 0 1.36 0 0 Z " fill="#FFFFFF" transform="translate(70,107)"/>
<path d="M0 0 C1.32 0 2.64 0 4 0 C3.67 1.65 3.34 3.3 3 5 C2.01 4.67 1.02 4.34 0 4 C0 2.68 0 1.36 0 0 Z " fill="#FFFFFF" transform="translate(54,107)"/>
<path d="M0 0 C0.99 0.33 1.98 0.66 3 1 C3 2.32 3 3.64 3 5 C1.68 5 0.36 5 -1 5 C-0.67 3.35 -0.34 1.7 0 0 Z " fill="#FFFFFF" transform="translate(86,101)"/>
<path d="M0 0 C0.99 0.33 1.98 0.66 3 1 C3 2.32 3 3.64 3 5 C1.68 5 0.36 5 -1 5 C-0.67 3.35 -0.34 1.7 0 0 Z " fill="#FFFFFF" transform="translate(40,101)"/>
<path d="M0 0 C1.32 0 2.64 0 4 0 C4 1.32 4 2.64 4 4 C2.35 3.67 0.7 3.34 -1 3 C-0.67 2.01 -0.34 1.02 0 0 Z " fill="#FFFFFF" transform="translate(102,85)"/>
<path d="M0 0 C2.475 0.495 2.475 0.495 5 1 C4.67 1.99 4.34 2.98 4 4 C2.68 4 1.36 4 0 4 C0 2.68 0 1.36 0 0 Z " fill="#FFFFFF" transform="translate(22,85)"/>
<path d="M0 0 C2.475 0.495 2.475 0.495 5 1 C4.67 1.99 4.34 2.98 4 4 C2.68 4 1.36 4 0 4 C0 2.68 0 1.36 0 0 Z " fill="#FFFFFF" transform="translate(107,70)"/>
<path d="M0 0 C1.32 0 2.64 0 4 0 C4 1.32 4 2.64 4 4 C2.35 3.67 0.7 3.34 -1 3 C-0.67 2.01 -0.34 1.02 0 0 Z " fill="#FFFFFF" transform="translate(17,70)"/>
<path d="M0 0 C2.475 0.495 2.475 0.495 5 1 C4.67 1.99 4.34 2.98 4 4 C2.68 4 1.36 4 0 4 C0 2.68 0 1.36 0 0 Z " fill="#FFFFFF" transform="translate(107,54)"/>
<path d="M0 0 C1.32 0 2.64 0 4 0 C4 1.32 4 2.64 4 4 C2.35 3.67 0.7 3.34 -1 3 C-0.67 2.01 -0.34 1.02 0 0 Z " fill="#FFFFFF" transform="translate(17,54)"/>
<path d="M0 0 C1.32 0 2.64 0 4 0 C4 1.32 4 2.64 4 4 C2.35 3.67 0.7 3.34 -1 3 C-0.67 2.01 -0.34 1.02 0 0 Z " fill="#FFFFFF" transform="translate(102,39)"/>
<path d="M0 0 C2.475 0.495 2.475 0.495 5 1 C4.67 1.99 4.34 2.98 4 4 C2.68 4 1.36 4 0 4 C0 2.68 0 1.36 0 0 Z " fill="#FFFFFF" transform="translate(22,39)"/>
<path d="M0 0 C1.32 0 2.64 0 4 0 C3.67 1.65 3.34 3.3 3 5 C2.01 4.67 1.02 4.34 0 4 C0 2.68 0 1.36 0 0 Z " fill="#FFFFFF" transform="translate(85,22)"/>
<path d="M0 0 C1.32 0 2.64 0 4 0 C3.67 1.65 3.34 3.3 3 5 C2.01 4.67 1.02 4.34 0 4 C0 2.68 0 1.36 0 0 Z " fill="#FFFFFF" transform="translate(39,22)"/>
<path d="M0 0 C0.99 0.33 1.98 0.66 3 1 C3 2.32 3 3.64 3 5 C1.68 5 0.36 5 -1 5 C-0.67 3.35 -0.34 1.7 0 0 Z " fill="#FFFFFF" transform="translate(71,16)"/>
<path d="M0 0 C0.99 0.33 1.98 0.66 3 1 C3 2.32 3 3.64 3 5 C1.68 5 0.36 5 -1 5 C-0.67 3.35 -0.34 1.7 0 0 Z " fill="#FFFFFF" transform="translate(55,16)"/>
<path d="M0 0 C1.32 0 2.64 0 4 0 C4 1.32 4 2.64 4 4 C2.68 4 1.36 4 0 4 C0 2.68 0 1.36 0 0 Z " fill="#FFFFFF" transform="translate(62,108)"/>
<path d="M0 0 C1.32 0 2.64 0 4 0 C4 1.32 4 2.64 4 4 C2.68 4 1.36 4 0 4 C0 2.68 0 1.36 0 0 Z " fill="#FFFFFF" transform="translate(108,62)"/>
<path d="M0 0 C1.32 0 2.64 0 4 0 C4 1.32 4 2.64 4 4 C2.68 4 1.36 4 0 4 C0 2.68 0 1.36 0 0 Z " fill="#FFFFFF" transform="translate(16,62)"/>
<path d="M0 0 C1.32 0 2.64 0 4 0 C4 1.32 4 2.64 4 4 C2.68 4 1.36 4 0 4 C0 2.68 0 1.36 0 0 Z " fill="#FFFFFF" transform="translate(62,16)"/>
</svg>
