<?xml version="1.0" encoding="UTF-8"?>
<svg version="1.1" xmlns="http://www.w3.org/2000/svg" width="128" height="128">
<path d="M0 0 C2.5 1.5 2.5 1.5 4 4 C4.78010936 7.96555593 4.62860558 10.93410359 2.5625 14.4375 C-0.18924992 16.11539629 -0.97798525 16.09736098 -4.0625 16.125 C-11.12005779 16.58931301 -15.26802833 22.26802833 -20 27 C-21.32036522 28.20190254 -22.65237134 29.3912481 -24 30.5625 C-24.62132813 31.11035156 -25.24265625 31.65820312 -25.8828125 32.22265625 C-27.50819329 33.58713643 -29.17887032 34.89780451 -30.8671875 36.18359375 C-38.16187811 41.71582619 -38.16187811 41.71582619 -41 50 C-44.69254709 52.46169806 -47.71403609 52.67400239 -52 52 C-54.4375 50.5 -54.4375 50.5 -56 48 C-56.0825 46.741875 -56.165 45.48375 -56.25 44.1875 C-56.5339161 40.21267454 -57.95292451 38.59393227 -60.875 35.9375 C-62.88684802 34.13338183 -62.88684802 34.13338183 -65 33 C-65.99 33.33 -66.98 33.66 -68 34 C-75.16287099 34.23106035 -75.16287099 34.23106035 -78.30859375 33.36279297 C-83.40017879 32.67646356 -87.6793073 35.75697217 -92.125 38 C-93.12660156 38.47050781 -94.12820312 38.94101563 -95.16015625 39.42578125 C-101.33807016 42.36072808 -101.33807016 42.36072808 -105.0546875 47.8125 C-105.36664063 48.864375 -105.67859375 49.91625 -106 51 C-109.20841035 52.60420518 -112.5193987 52.47462745 -116 52 C-118.5 50.5 -118.5 50.5 -120 48 C-120.791013 43.97901723 -120.62153384 41.03588973 -118.5 37.5 C-115.03870204 35.42322122 -111.88793207 35.55835409 -108 36 C-107.23888916 36.21245361 -106.47777832 36.42490723 -105.69360352 36.64379883 C-100.59910885 37.31749299 -96.32288589 34.24413439 -91.875 32 C-90.37259766 31.29423828 -90.37259766 31.29423828 -88.83984375 30.57421875 C-82.66192984 27.63927192 -82.66192984 27.63927192 -78.9453125 22.1875 C-78.63335937 21.135625 -78.32140625 20.08375 -78 19 C-74.79938977 17.39969489 -71.4732752 17.50577902 -68 18 C-65.5 19.6875 -65.5 19.6875 -64 22 C-63.75 24.75 -63.75 24.75 -64 27 C-63.40574219 27.26683594 -62.81148437 27.53367187 -62.19921875 27.80859375 C-59.97461112 29.01375419 -58.58659149 30.27964757 -56.8125 32.0625 C-53.33685771 35.15529616 -50.59629215 35.7263599 -46.015625 35.89453125 C-44 36 -44 36 -41 37 C-40.29875 36.35933594 -39.5975 35.71867187 -38.875 35.05859375 C-30.16692383 27.11957322 -30.16692383 27.11957322 -25.875 23.375 C-25.25109375 22.82199219 -24.6271875 22.26898438 -23.984375 21.69921875 C-22.55097278 20.47179756 -21.07614062 19.29220451 -19.578125 18.14453125 C-15.16127408 14.62089699 -12.60924519 12.32542007 -11.625 6.625 C-11.55539063 5.79226562 -11.48578125 4.95953125 -11.4140625 4.1015625 C-11.27742188 3.40804687 -11.14078125 2.71453125 -11 2 C-7.30669268 -0.46220488 -4.2863512 -0.67270703 0 0 Z M-6 5 C-6.33 6.65 -6.66 8.3 -7 10 C-4.525 10.495 -4.525 10.495 -2 11 C-1.67 9.35 -1.34 7.7 -1 6 C-2.65 5.67 -4.3 5.34 -6 5 Z M-74 23 C-74.33 24.65 -74.66 26.3 -75 28 C-72.525 28.495 -72.525 28.495 -70 29 C-69.67 27.35 -69.34 25.7 -69 24 C-70.65 23.67 -72.3 23.34 -74 23 Z M-114 41 C-114.33 42.65 -114.66 44.3 -115 46 C-112.525 46.495 -112.525 46.495 -110 47 C-109.67 45.35 -109.34 43.7 -109 42 C-110.65 41.67 -112.3 41.34 -114 41 Z M-50 41 C-50.33 42.65 -50.66 44.3 -51 46 C-48.525 46.495 -48.525 46.495 -46 47 C-45.67 45.35 -45.34 43.7 -45 42 C-46.65 41.67 -48.3 41.34 -50 41 Z " fill="#FFFFFF" transform="translate(122,62)"/>
<path d="M0 0 C40.92 0 81.84 0 124 0 C124 1.32 124 2.64 124 4 C83.08 4 42.16 4 0 4 C0 2.68 0 1.36 0 0 Z " fill="#FFFFFF" transform="translate(2,122)"/>
<path d="M0 0 C1.32 0 2.64 0 4 0 C4 2.64 4 5.28 4 8 C5.32 8 6.64 8 8 8 C8 18.56 8 29.12 8 40 C6.68 40 5.36 40 4 40 C4 42.64 4 45.28 4 48 C2.68 48 1.36 48 0 48 C0 45.36 0 42.72 0 40 C-1.32 40 -2.64 40 -4 40 C-4 29.44 -4 18.88 -4 8 C-2.68 8 -1.36 8 0 8 C0 5.36 0 2.72 0 0 Z M0 12 C0 19.92 0 27.84 0 36 C1.32 36 2.64 36 4 36 C4 28.08 4 20.16 4 12 C2.68 12 1.36 12 0 12 Z " fill="#FFFFFF" transform="translate(72,46)"/>
<path d="M0 0 C1.32 0 2.64 0 4 0 C4 2.64 4 5.28 4 8 C5.32 8 6.64 8 8 8 C8 18.56 8 29.12 8 40 C6.68 40 5.36 40 4 40 C4 42.64 4 45.28 4 48 C2.68 48 1.36 48 0 48 C0 45.36 0 42.72 0 40 C-1.32 40 -2.64 40 -4 40 C-4 29.44 -4 18.88 -4 8 C-2.68 8 -1.36 8 0 8 C0 5.36 0 2.72 0 0 Z M0 12 C0 19.92 0 27.84 0 36 C1.32 36 2.64 36 4 36 C4 28.08 4 20.16 4 12 C2.68 12 1.36 12 0 12 Z " fill="#FFFFFF" transform="translate(32,30)"/>
<path d="M0 0 C1.32 0 2.64 0 4 0 C4 2.64 4 5.28 4 8 C5.32 8 6.64 8 8 8 C8 18.56 8 29.12 8 40 C6.68 40 5.36 40 4 40 C4 42.64 4 45.28 4 48 C2.68 48 1.36 48 0 48 C0 45.36 0 42.72 0 40 C-1.32 40 -2.64 40 -4 40 C-4 29.44 -4 18.88 -4 8 C-2.68 8 -1.36 8 0 8 C0 5.36 0 2.72 0 0 Z M0 12 C0 19.92 0 27.84 0 36 C1.32 36 2.64 36 4 36 C4 28.08 4 20.16 4 12 C2.68 12 1.36 12 0 12 Z " fill="#FFFFFF" transform="translate(112,10)"/>
<path d="M0 0 C1.32 0 2.64 0 4 0 C4 2.64 4 5.28 4 8 C5.32 8 6.64 8 8 8 C8 18.56 8 29.12 8 40 C6.68 40 5.36 40 4 40 C4 42.64 4 45.28 4 48 C2.68 48 1.36 48 0 48 C0 45.36 0 42.72 0 40 C-1.32 40 -2.64 40 -4 40 C-4 29.44 -4 18.88 -4 8 C-2.68 8 -1.36 8 0 8 C0 5.36 0 2.72 0 0 Z M0 12 C0 19.92 0 27.84 0 36 C1.32 36 2.64 36 4 36 C4 28.08 4 20.16 4 12 C2.68 12 1.36 12 0 12 Z " fill="#FFFFFF" transform="translate(12,10)"/>
<path d="M0 0 C1.32 0 2.64 0 4 0 C4 2.64 4 5.28 4 8 C5.32 8 6.64 8 8 8 C8 18.56 8 29.12 8 40 C6.68 40 5.36 40 4 40 C4 42.64 4 45.28 4 48 C2.68 48 1.36 48 0 48 C0 45.36 0 42.72 0 40 C-1.32 40 -2.64 40 -4 40 C-4 29.44 -4 18.88 -4 8 C-2.68 8 -1.36 8 0 8 C0 5.36 0 2.72 0 0 Z M0 12 C0 19.92 0 27.84 0 36 C1.32 36 2.64 36 4 36 C4 28.08 4 20.16 4 12 C2.68 12 1.36 12 0 12 Z " fill="#FFFFFF" transform="translate(92,2)"/>
<path d="M0 0 C1.32 0 2.64 0 4 0 C4 2.64 4 5.28 4 8 C5.32 8 6.64 8 8 8 C8 18.56 8 29.12 8 40 C6.68 40 5.36 40 4 40 C4 42.64 4 45.28 4 48 C2.68 48 1.36 48 0 48 C0 45.36 0 42.72 0 40 C-1.32 40 -2.64 40 -4 40 C-4 29.44 -4 18.88 -4 8 C-2.68 8 -1.36 8 0 8 C0 5.36 0 2.72 0 0 Z M0 12 C0 19.92 0 27.84 0 36 C1.32 36 2.64 36 4 36 C4 28.08 4 20.16 4 12 C2.68 12 1.36 12 0 12 Z " fill="#FFFFFF" transform="translate(52,2)"/>
</svg>
